<?xml version="1.0" encoding="utf-8"?>
<!-- Generator: Adobe Illustrator 19.1.0, SVG Export Plug-In . SVG Version: 6.00 Build 0)  -->
<svg version="1.1" id="Capa_1" xmlns="http://www.w3.org/2000/svg" xmlns:xlink="http://www.w3.org/1999/xlink" x="0px" y="0px"
	 viewBox="-164 -34.8 469.8 469.8" style="enable-background:new -164 -34.8 469.8 469.8;" xml:space="preserve">
<style type="text/css">
	.st0{fill:#FFA10E;}
</style>
<path class="st0" d="M176.1,254c-0.9-1.6-2.6-2.7-4.5-3c-0.8-0.1-1.7-0.2-2.5-0.3c7.3-26.5,3.3-63.6-2.3-74.7
	c-4.4-8.8-7.6-30-2.8-44.4c0.7-2.2,0.1-4.7-1.6-6.3c-1.7-1.6-4.3-2-6.4-1.1c-3.4,1.4-6.2,3.3-8.6,5.3c0-6.3,0-12.8,0-19.4
	c0-32.9-5.1-63.8-14.4-87.2c-10-25.1-24-39-39.4-39C81-16,69.2-6.6,59.9,10.8c-0.6-13.3-0.8-28.7,1.2-38.4c0.6-2.7-0.9-5.5-3.4-6.7
	c-2.6-1.1-5.6-0.4-7.2,1.9C31.5-7.3,18.7,36.7,12.2,98.5c-3.6,34.1-4.1,64.4-4.2,77.7c-1.1-0.1-2.1-0.3-3.2-0.4
	c-10.3-1.4-19.1-2.5-25-7.7c-4.1-3.6-6.2-4.8-8.7-4.8c-2.7,0-5,1.6-5.9,4.1c-1.1,2.9-1,6,9.8,19.3c6.7,8.2,14.4,16.2,21.1,22
	c6.6,5.7,10.6,14,11,22.8c0.2,5.3,0.4,11.4,0.6,18c1.3,45.6,3.2,114.5,26.6,137.1c7.4,7.2,16.9,12.5,27.9,15.8V429c0,3.3,2.7,6,6,6
	h40.1c3.3,0,6-2.7,6-6v-24.4c2.3-0.4,4.3-0.7,5.8-1.1c2.5-0.5,5.1-0.9,7.6-1.2c11.2-1.4,20.1-6.2,26.4-14.4
	c11.7-15.1,13.7-40.9,6-76.6l-0.1-0.4c-2.9-13.5,2.6-37.3,15.1-49.8C177,259.3,177.5,256.4,176.1,254z M156.2,181.4
	c2,4,4.3,15.7,4.8,30.1c0.6,15.8-1.1,30-4.7,40.2c-4.2,0.9-8.5,2.4-12.9,4.5c1.3-7.6,2-14.7,2.2-21.1c1.2-49.7,1.6-78.8,1.7-83
	c0.2-0.9,0.9-3.6,2.5-6.6C149.3,159,152,173,156.2,181.4z M129,266.3c-2,2-4.1,4.3-6.1,7c-0.1,0-0.3,0-0.4,0c-1.8,0-3.5-0.2-5.1-0.7
	c-0.6-3.1-2.5-5.9-5.3-8.2c2-1.8,5.7-3.2,10.3-3.2c2.7,0,5.3,0.5,7.4,1.4c-0.2,1.1-0.5,2.3-0.8,3.5
	C129.1,266.3,129.1,266.3,129,266.3z M112.5,338.5c-0.9-0.8-1.9-1.5-3-2.1c1.5-0.9,2.9-1.9,4.1-3C113.3,335.1,113,336.9,112.5,338.5
	z M53.6,77.5c2.1-1.7,5.7-3,10.1-3c3.1,0,6.1,0.7,8.4,1.9c-0.1,0.6-0.2,1.2-0.2,1.9c0,2,0.5,3.9,1.4,5.6c-2,1.5-5.4,2.7-9.6,2.7
	c-4.8,0-8.8-1.6-10.7-3.5C53.2,81.2,53.4,79.3,53.6,77.5z M94.8,282.8c-8.8,0-14.9-4.2-14.9-7.9s6.1-7.9,14.9-7.9s14.9,4.2,14.9,7.9
	S103.6,282.8,94.8,282.8z M109.7,29.1c0,3.7-6.1,7.9-14.9,7.9s-14.9-4.2-14.9-7.9s6.1-7.9,14.9-7.9S109.7,25.4,109.7,29.1z
	 M132.3,249.9c-2.1,1.5-5.6,2.7-9.7,2.7c-1.7,0-3.4-0.2-5-0.6c0.1-0.5,0.1-1.1,0.1-1.6c0-3-1.1-5.7-3.1-8.1c2-1,4.8-1.7,8-1.7
	c4.6,0,8.5,1.5,10.5,3.3C132.8,245.8,132.6,247.8,132.3,249.9z M122.6,231.9c-2.2,0-4.2-0.3-6.1-0.9c0.8-1.6,1.2-3.3,1.2-5.2
	c0-1.8-0.4-3.5-1.2-5.1c1.8-0.6,3.9-0.9,6-0.9c5.5,0,9.8,2,11.3,4.3c0,1.2-0.1,2.4-0.1,3.6C132.2,229.9,127.9,231.9,122.6,231.9z
	 M79.9,201.2c0-3.7,6.1-7.9,14.9-7.9c8.8,0,14.9,4.2,14.9,7.9s-6.1,7.9-14.9,7.9S79.9,204.9,79.9,201.2z M109.7,152
	c0,3.7-6.1,7.9-14.9,7.9s-14.9-4.2-14.9-7.9s6.1-7.9,14.9-7.9S109.7,148.3,109.7,152z M111.5,165.7c-0.6-0.7-0.9-1.4-0.9-2.1
	c2.1-1.4,3.8-3,5-4.8c2-0.8,4.5-1.2,7-1.2c6.8,0,11.9,3.2,11.9,6c0,2.8-5.1,6-11.9,6C119.8,169.6,115.4,168.7,111.5,165.7z
	 M122.6,148.8c-2,0-3.8-0.3-5.6-0.8c-1-2.7-3-5.2-5.7-7.1c1.6-2.2,5.9-4.2,11.2-4.2c6.8,0,11.9,3.2,11.9,6
	C134.5,145.7,129.4,148.8,122.6,148.8z M94.8,95c8.8,0,14.9,4.2,14.9,7.9s-6.1,7.9-14.9,7.9s-14.9-4.2-14.9-7.9S86.1,95,94.8,95z
	 M94.8,119.6c8.8,0,14.9,4.2,14.9,7.9s-6.1,7.9-14.9,7.9s-14.9-4.2-14.9-7.9S86.1,119.6,94.8,119.6z M94.8,168.7
	c1.2,0,2.4,0.1,3.5,0.2c3.7,0.5,7.2,2.1,10,4.5h0c0.9,1,1.4,2.1,1.4,3.1c0,3.7-6.1,7.9-14.9,7.9s-14.9-4.2-14.9-7.9
	S86.1,168.7,94.8,168.7z M122.6,190.3c-4.6,0-8.4-1.5-10.4-3.3c2.8-2.2,4.6-5,5.3-8.1c1.6-0.4,3.3-0.7,5.1-0.7
	c6.8,0,11.9,3.2,11.9,6C134.5,187.2,129.4,190.3,122.6,190.3z M122.6,128.1c-1.7,0-3.3-0.2-4.9-0.6c0,0,0,0,0,0
	c0-3.4-1.5-6.6-4.1-9.2c2.1-1.3,5.2-2.2,9-2.2c6.8,0,11.9,3.2,11.9,6C134.5,124.9,129.4,128.1,122.6,128.1z M122.6,107.3
	c-1.9,0-3.8-0.3-5.5-0.8c0.4-1.2,0.6-2.4,0.6-3.7c0-2.3-0.7-4.5-1.9-6.4c2-0.7,4.3-1.2,6.8-1.2c6.8,0,11.9,3.2,11.9,6
	C134.5,104.2,129.4,107.3,122.6,107.3z M94.8,86.2c-8.8,0-14.9-4.2-14.9-7.9s6.1-7.9,14.9-7.9s14.9,4.2,14.9,7.9
	S103.6,86.2,94.8,86.2z M94.8,61.6c-8.8,0-14.9-4.2-14.9-7.9s6.1-7.9,14.9-7.9s14.9,4.2,14.9,7.9S103.6,61.6,94.8,61.6z M75.7,142.8
	c0,0.2,0,0.3-0.1,0.5c-0.8,0.9-1.5,1.8-2.1,2.8c-2.1,1.6-5.6,2.8-9.8,2.8c-6.2,0-11-2.6-11.8-5.3c0-0.5,0-1,0-1.5
	c0.8-2.6,5.6-5.3,11.8-5.3C70.6,136.8,75.7,140,75.7,142.8z M63.7,157.5c6.8,0,11.9,3.2,11.9,6s-5.1,6-11.9,6
	c-5.8,0-10.3-2.3-11.6-4.7c0-0.9,0-1.7,0-2.6C53.3,159.9,57.9,157.5,63.7,157.5z M94.8,242.5c8.8,0,14.9,4.2,14.9,7.9
	s-6.1,7.9-14.9,7.9s-14.9-4.2-14.9-7.9S86.1,242.5,94.8,242.5z M134.3,206c-0.9,2.6-5.7,5.1-11.8,5.1c-3.3,0-6-0.7-8-1.7
	c2-2.4,3.2-5.2,3.2-8.2c0-0.5,0-1-0.1-1.5c1.6-0.4,3.2-0.6,5-0.6c6.2,0,10.9,2.6,11.8,5.2C134.3,204.8,134.3,205.4,134.3,206z
	 M72.1,55.7c0.4,2.2,1.4,4.2,2.8,6c-1.6,2.2-5.9,4.2-11.2,4.2c-3.3,0-6.1-0.8-8.2-1.8c0.5-3.1,1.1-6.2,1.7-9.2
	c1.9-0.7,4.2-1.1,6.4-1.1C66.9,53.8,69.9,54.5,72.1,55.7z M63.7,95.3c4.1,0,7.3,1.1,9.4,2.5c-0.8,1.6-1.2,3.3-1.2,5.1
	c0,0.9,0.1,1.7,0.3,2.5c-2.3,1.2-5.3,2-8.5,2c-6.2,0-11-2.6-11.8-5.3c0-0.6,0-1.1,0-1.7C52.9,97.8,57.6,95.3,63.7,95.3z M63.7,116
	c5,0,9.1,1.8,10.9,3.8c-1.5,1.9-2.4,4.1-2.6,6.4c-2.3,1.2-5.2,1.8-8.3,1.8c-6.7,0-11.7-3-11.9-5.8c0-0.1,0-0.3,0-0.4
	C52.1,119.1,57.1,116,63.7,116z M63.7,178.3c3.3,0,6.5,0.8,8.9,2.2c0.6,1.7,1.6,3.3,2.9,4.8c-0.9,2.6-5.6,5.1-11.8,5.1
	c-5.3,0-9.6-1.9-11.2-4.1c0-1.2-0.1-2.5-0.1-3.7C54,180.3,58.3,178.3,63.7,178.3z M63.7,199c3.1,0,6,0.7,8.2,1.8c0,0.1,0,0.2,0,0.3
	c0,2.4,0.7,4.7,2.1,6.7c-2,1.7-5.6,3.2-10.3,3.2c-2.6,0-5.1-0.5-7.2-1.3c-1.2-2.7-2.3-5.1-3.5-7.2C55,200.6,58.9,199,63.7,199z
	 M94.8,217.9c8.8,0,14.9,4.2,14.9,7.9s-6.1,7.9-14.9,7.9s-14.9-4.2-14.9-7.9S86.1,217.9,94.8,217.9z M94.8,291.6
	c8.8,0,14.9,4.2,14.9,7.9s-6.1,7.9-14.9,7.9c-5.5,0-10-1.7-12.6-3.8c-0.5-2.2-0.9-4.4-1.4-6.6C82.9,294.1,88,291.6,94.8,291.6z
	 M122.6,86.6c-2.6,0-5.1-0.5-7.1-1.3c1.4-2.1,2.3-4.5,2.3-7c0-1.1-0.1-2.1-0.4-3.1c1.6-0.4,3.4-0.7,5.3-0.7c5.3,0,9.6,1.9,11.2,4.2
	c0.1,1.1,0.2,2.1,0.3,3.2C132.9,84.3,128.3,86.6,122.6,86.6z M131.7,63.5c-2.1,1.3-5.3,2.3-9.1,2.3c-4,0-7.3-1.1-9.4-2.5
	c2.7-2.5,4.3-5.6,4.5-8.9c1.5-0.4,3.2-0.6,4.9-0.6c3.1,0,5.6,0.6,7.5,1.5C130.7,58,131.2,60.7,131.7,63.5z M94.8,12.4
	c-8.8,0-14.9-4.2-14.9-7.9s6.1-7.9,14.9-7.9s14.9,4.2,14.9,7.9S103.6,12.4,94.8,12.4z M63.3,33c0.1,0,0.3,0,0.4,0
	c6.8,0,11.9,3.2,11.9,6c0,2.8-5.1,6-11.9,6c-1.4,0-2.7-0.1-4-0.4C60.8,40.6,62,36.7,63.3,33z M94.8,316.2c8.5,0,14.9,4.2,14.9,7.9
	c0,3.7-6.4,7.9-14.9,7.9c-2.5,0-4.9-0.4-7.1-1c-0.8-4.1-1.6-8.4-2.5-12.7C87.9,316.9,91.3,316.2,94.8,316.2z M112.4,309.8
	c0,0.7,0,1.3,0.1,2c-0.5-0.4-0.8-0.8-1.1-1.2C111.7,310.4,112,310.1,112.4,309.8z M122.6,45.1c-5.7,0-10.2-2.2-11.5-4.7
	c2.6-1.8,4.6-4,5.7-6.5c1.8-0.6,3.8-0.9,5.9-0.9c0.5,0,1,0,1.4,0c1.3,3.6,2.4,7.4,3.5,11.4C126,44.9,124.3,45.1,122.6,45.1z
	 M116.1,23.3c-1.2-2.2-3-4.1-5.4-5.6c0.4-1.4,2-2.9,4.5-4c1.8,3.1,3.6,6.7,5.3,10.6C119,24.1,117.5,23.8,116.1,23.3z M75.7,18.3
	c0,2.4-3.7,5.1-8.9,5.8c1.6-3.7,3.2-7.1,4.9-10.2C74.2,15.2,75.7,16.9,75.7,18.3z M63.7,219.8c3.4,0,6.6,0.8,8.9,2.2
	c-0.4,1.2-0.6,2.5-0.6,3.8c0,1.4,0.2,2.7,0.7,3.9c-2.1,1.3-5,2-8.1,2.1c-1.3-4.2-2.6-8.1-3.9-11.8C61.6,219.9,62.7,219.8,63.7,219.8
	z M74,243.7c-1.3,2-2,4.3-2,6.7c0,0.1,0,0.3,0,0.4c-0.6,0.3-1.2,0.5-1.8,0.8c-1-3.7-2-7.3-3-10.7C70.2,241.3,72.5,242.4,74,243.7z
	 M94.8,340.8c6.3,0,11.4,2.3,13.6,5c-0.2,0.2-0.4,0.4-0.7,0.6c-4.9,4.3-12.2,4.2-16.6,3.7c-0.5-2.8-1-5.7-1.6-8.8
	C91.3,341,93,340.8,94.8,340.8z M114.5,291.3c-1.1-1.2-2.3-2.3-3.8-3.3c0-0.8,0.5-1.6,1.3-2.4c0.3-0.3,0.6-0.5,0.9-0.8l0.6-0.4
	c1.2-0.7,2.6-1.3,4.1-1.7C116.4,285.3,115.3,288.2,114.5,291.3z M47.5-3.2c0.1,17.1,1.7,34.5,2.2,39.3c-6.4,21.3-9.9,47.1-9.9,74.1
	c0,27.8,0.3,53.8,0.7,77.3c-6.4-4.9-13.5-7.6-20.5-9.3C20.1,155.3,21.6,55.2,47.5-3.2z M19.7,249c-0.2-6.6-0.4-12.7-0.6-18.1
	c-0.5-12.1-6-23.5-15.1-31.4c-4.9-4.2-9.8-9.3-14.1-14.1c4.4,1,8.9,1.6,13.4,2.2c15.1,2,29.4,3.9,38.5,19.3
	c16.5,28,34.6,127.6,39.8,157.4c2.3,13.3,13,23.1,22.6,29.4c-3.7,0.4-7.8,0.6-12.2,0.6c0,0,0,0,0,0c-26.7,0-41.6-9-49.4-16.6
	C22.8,358.6,20.9,290,19.7,249z M102.3,423H74.2v-18c5.6,0.9,11.6,1.4,17.9,1.4c0,0,0,0,0,0c3.6,0,7-0.2,10.2-0.4L102.3,423
	L102.3,423z M148.4,313.5l0.1,0.4c6.9,32.1,5.6,54.6-3.8,66.7c-4.7,6.1-11.5,9.4-20.8,10c-8.6-3.4-28-14-30.5-28.3l0,0
	c6.5,0.3,15.3-0.8,22.2-6.8c8.6-7.5,11.8-20.2,9.4-37.9c-2.4-17.7,1.9-32.5,12.4-42.7c6.2-6.1,13.9-9.8,20.9-11.4
	C148.7,279.4,145.5,300,148.4,313.5z"/>
</svg>
