<?xml version="1.0" encoding="utf-8"?>
<!-- Generator: Adobe Illustrator 19.1.0, SVG Export Plug-In . SVG Version: 6.00 Build 0)  -->
<svg version="1.1" id="Capa_1" xmlns="http://www.w3.org/2000/svg" xmlns:xlink="http://www.w3.org/1999/xlink" x="0px" y="0px"
	 viewBox="-389 191.2 19.8 19.8" style="enable-background:new -389 191.2 19.8 19.8;" xml:space="preserve">
<style type="text/css">
	.st0{fill:#FFA10E;}
</style>
<g>
	<g>
		<path class="st0" d="M-383.4,196.3c-3.4,1.5-5.6,4.7-5.6,4.7c0,0,1.7,1.7,3.1,1.2l0,0.3c-0.2,0.1-0.4,0.1-0.5,0.1
			c-1,0-1.9-0.5-2.5-1c0.7,0.9,2.7,3.1,5.2,4.4C-381.7,202.7-383.1,197.3-383.4,196.3z M-385.5,201.1c-0.6,0-1-0.5-1-1
			c0-0.6,0.5-1,1-1c0.6,0,1,0.5,1,1C-384.5,200.6-384.9,201.1-385.5,201.1z"/>
		<path class="st0" d="M-372.2,199.9c-1-1.1-2.6-2.6-4.6-3.6c2-0.9,6,0.7,2.4-1.5c-3.5-2.2-6.4,0.2-7.1,1c-0.4,0.1-0.8,0.2-1.2,0.4
			c0.3,1,1.8,6.5-0.2,9.9c0.8,0.3,1.6,0.6,2.5,0.6c1.7,1.6,5.4,2.2,4.3,0.7c-0.3-0.4-0.6-0.8-0.9-1.3c2.3-1,4.2-2.9,5.3-4l2.7,1.6
			v-5L-372.2,199.9z"/>
		<circle class="st0" cx="-385.5" cy="200" r="0.6"/>
	</g>
</g>
</svg>
