<?xml version="1.0" encoding="utf-8"?>
<!-- Generator: Adobe Illustrator 19.1.0, SVG Export Plug-In . SVG Version: 6.00 Build 0)  -->
<svg version="1.1" id="Capa_1" xmlns="http://www.w3.org/2000/svg" xmlns:xlink="http://www.w3.org/1999/xlink" x="0px" y="0px"
	 viewBox="-391 192.1 16.9 16.9" style="enable-background:new -391 192.1 16.9 16.9;" xml:space="preserve">
<style type="text/css">
	.st0{fill:#E67E22;}
</style>
<g>
	<path class="st0" d="M-385.7,197.7l-3.9-3.9c0.5-0.5,1-1,1.5-1.5c0.2-0.2,0.6-0.2,0.8,0l3,3c0.2,0.2,0.2,0.6,0,0.8l-0.7,0.7
		l-0.6,0.6C-385.6,197.5-385.6,197.6-385.7,197.7z M-382.5,204.1c-0.6-0.5-1.3-1.1-1.8-1.7c-0.6-0.6-1.2-1.2-1.7-1.8
		c-0.4-0.5-0.5-1.3-0.3-1.9l-4-4c-0.9,1-0.8,3.3,0.2,5.4c0.4,0.9,1,1.7,1.6,2.5c0.6,0.8,1.2,1.5,1.9,2.2c0.7,0.7,1.4,1.3,2.2,1.9
		c0.8,0.6,1.6,1.2,2.5,1.6c2.1,1,4.5,1.1,5.4,0.2l-4-4C-381.2,204.6-382,204.5-382.5,204.1z M-374.3,205.2l-3-3
		c-0.2-0.2-0.6-0.2-0.8,0h0l-0.7,0.7l-0.6,0.6c-0.1,0.1-0.2,0.1-0.2,0.2l3.9,3.9c0.5-0.5,1-1,1.5-1.5
		C-374.1,205.9-374.1,205.5-374.3,205.2z"/>
</g>
</svg>
